{
    "asset" : {
        "generator" : "Khronos glTF Blender I/O v3.4.50",
        "version" : "2.0"
    },
    "scene" : 0,
    "scenes" : [
        {
            "name" : "Scene",
            "nodes" : [
                0
            ]
        }
    ],
    "nodes" : [
        {
            "mesh" : 0,
            "name" : "button.002",
            "rotation" : [
                0,
                0,
                -0.7071068286895752,
                0.7071068286895752
            ],
            "scale" : [
                1.25,
                2.5,
                1.25
            ],
            "translation" : [
                0.09768306463956833,
                -1.074012279510498,
                0
            ]
        }
    ],
    "materials" : [
        {
            "doubleSided" : true,
            "name" : "Material",
            "pbrMetallicRoughness" : {
                "baseColorTexture" : {
                    "index" : 0
                },
                "metallicFactor" : 0,
                "roughnessFactor" : 0.5
            }
        },
        {
            "doubleSided" : true,
            "name" : "Material.002",
            "pbrMetallicRoughness" : {
                "baseColorTexture" : {
                    "index" : 1
                },
                "metallicFactor" : 0,
                "roughnessFactor" : 0.5
            }
        },
        {
            "doubleSided" : true,
            "name" : "Material.001",
            "pbrMetallicRoughness" : {
                "baseColorFactor" : [
                    0.8000000715255737,
                    0.004183996468782425,
                    0,
                    1
                ],
                "metallicFactor" : 0,
                "roughnessFactor" : 0.5
            }
        },
        {
            "doubleSided" : true,
            "name" : "Material.003",
            "pbrMetallicRoughness" : {
                "baseColorTexture" : {
                    "index" : 2
                },
                "metallicFactor" : 0,
                "roughnessFactor" : 0.5
            }
        },
        {
            "doubleSided" : true,
            "name" : "Material.004",
            "pbrMetallicRoughness" : {
                "baseColorTexture" : {
                    "index" : 3
                },
                "metallicFactor" : 0,
                "roughnessFactor" : 0.5
            }
        },
        {
            "doubleSided" : true,
            "name" : "SVGMat.003",
            "pbrMetallicRoughness" : {
                "baseColorFactor" : [
                    1,
                    1,
                    1,
                    1
                ],
                "metallicFactor" : 0,
                "roughnessFactor" : 0.4000000059604645
            }
        },
        {
            "doubleSided" : true,
            "name" : "Material.005",
            "pbrMetallicRoughness" : {
                "baseColorTexture" : {
                    "index" : 4
                },
                "metallicFactor" : 0,
                "roughnessFactor" : 0.5
            }
        },
        {
            "doubleSided" : true,
            "name" : "Material.006",
            "pbrMetallicRoughness" : {
                "baseColorTexture" : {
                    "index" : 5
                },
                "metallicFactor" : 0,
                "roughnessFactor" : 0.5
            }
        }
    ],
    "meshes" : [
        {
            "name" : "Cylinder.002",
            "primitives" : [
                {
                    "attributes" : {
                        "POSITION" : 0,
                        "TEXCOORD_0" : 1,
                        "NORMAL" : 2
                    },
                    "indices" : 3,
                    "material" : 0
                },
                {
                    "attributes" : {
                        "POSITION" : 4,
                        "TEXCOORD_0" : 5,
                        "NORMAL" : 6
                    },
                    "indices" : 7,
                    "material" : 1
                },
                {
                    "attributes" : {
                        "POSITION" : 8,
                        "TEXCOORD_0" : 9,
                        "NORMAL" : 10
                    },
                    "indices" : 11,
                    "material" : 2
                },
                {
                    "attributes" : {
                        "POSITION" : 12,
                        "TEXCOORD_0" : 13,
                        "NORMAL" : 14
                    },
                    "indices" : 15,
                    "material" : 3
                },
                {
                    "attributes" : {
                        "POSITION" : 16,
                        "TEXCOORD_0" : 17,
                        "NORMAL" : 18
                    },
                    "indices" : 19,
                    "material" : 4
                },
                {
                    "attributes" : {
                        "POSITION" : 20,
                        "TEXCOORD_0" : 21,
                        "NORMAL" : 22
                    },
                    "indices" : 23,
                    "material" : 5
                },
                {
                    "attributes" : {
                        "POSITION" : 24,
                        "TEXCOORD_0" : 25,
                        "NORMAL" : 26
                    },
                    "indices" : 27,
                    "material" : 6
                },
                {
                    "attributes" : {
                        "POSITION" : 28,
                        "TEXCOORD_0" : 29,
                        "NORMAL" : 30
                    },
                    "indices" : 31,
                    "material" : 7
                }
            ]
        }
    ],
    "textures" : [
        {
            "sampler" : 0,
            "source" : 0
        },
        {
            "sampler" : 0,
            "source" : 1
        },
        {
            "sampler" : 0,
            "source" : 2
        },
        {
            "sampler" : 0,
            "source" : 3
        },
        {
            "sampler" : 0,
            "source" : 4
        },
        {
            "sampler" : 0,
            "source" : 5
        }
    ],
    "images" : [
        {
            "mimeType" : "image/jpeg",
            "name" : "92471",
            "uri" : "texture/92471.jpg"
        },
        {
            "mimeType" : "image/png",
            "name" : "00ade7",
            "uri" : "texture/00ade7.png"
        },
        {
            "mimeType" : "image/png",
            "name" : "images",
            "uri" : "texture/images.png"
        },
        {
            "mimeType" : "image/jpeg",
            "name" : "download",
            "uri" : "texture/download.jpg"
        },
        {
            "mimeType" : "image/png",
            "name" : "download",
            "uri" : "texture/download-1.png"
        },
        {
            "mimeType" : "image/jpeg",
            "name" : "images",
            "uri" : "texture/images-1.jpg"
        }
    ],
    "accessors" : [
        {
            "bufferView" : 0,
            "componentType" : 5126,
            "count" : 5553,
            "max" : [
                0.27679014205932617,
                0.23486703634262085,
                1.6103270053863525
            ],
            "min" : [
                -2.2432098388671875,
                -0.15785644948482513,
                -1.3445162773132324
            ],
            "type" : "VEC3"
        },
        {
            "bufferView" : 1,
            "componentType" : 5126,
            "count" : 5553,
            "type" : "VEC2"
        },
        {
            "bufferView" : 2,
            "componentType" : 5126,
            "count" : 5553,
            "type" : "VEC3"
        },
        {
            "bufferView" : 3,
            "componentType" : 5123,
            "count" : 20658,
            "type" : "SCALAR"
        },
        {
            "bufferView" : 4,
            "componentType" : 5126,
            "count" : 5787,
            "max" : [
                0.08650463819503784,
                0.0823628157377243,
                1.4552981853485107
            ],
            "min" : [
                -2.329456329345703,
                -0.2356266975402832,
                -0.5920133590698242
            ],
            "type" : "VEC3"
        },
        {
            "bufferView" : 5,
            "componentType" : 5126,
            "count" : 5787,
            "type" : "VEC2"
        },
        {
            "bufferView" : 6,
            "componentType" : 5126,
            "count" : 5787,
            "type" : "VEC3"
        },
        {
            "bufferView" : 7,
            "componentType" : 5123,
            "count" : 18534,
            "type" : "SCALAR"
        },
        {
            "bufferView" : 8,
            "componentType" : 5126,
            "count" : 22722,
            "max" : [
                0.1528475135564804,
                0.20401884615421295,
                0.6000000238418579
            ],
            "min" : [
                -1.547433614730835,
                -0.1317116767168045,
                -1.836991786956787
            ],
            "type" : "VEC3"
        },
        {
            "bufferView" : 9,
            "componentType" : 5126,
            "count" : 22722,
            "type" : "VEC2"
        },
        {
            "bufferView" : 10,
            "componentType" : 5126,
            "count" : 22722,
            "type" : "VEC3"
        },
        {
            "bufferView" : 11,
            "componentType" : 5123,
            "count" : 34764,
            "type" : "SCALAR"
        },
        {
            "bufferView" : 12,
            "componentType" : 5126,
            "count" : 548,
            "max" : [
                -0.40509286522865295,
                0.005314151756465435,
                0.6000000238418579
            ],
            "min" : [
                -0.8230928182601929,
                -0.055073242634534836,
                -0.6000000834465027
            ],
            "type" : "VEC3"
        },
        {
            "bufferView" : 13,
            "componentType" : 5126,
            "count" : 548,
            "type" : "VEC2"
        },
        {
            "bufferView" : 14,
            "componentType" : 5126,
            "count" : 548,
            "type" : "VEC3"
        },
        {
            "bufferView" : 15,
            "componentType" : 5123,
            "count" : 1494,
            "type" : "SCALAR"
        },
        {
            "bufferView" : 16,
            "componentType" : 5126,
            "count" : 2628,
            "max" : [
                -0.999334454536438,
                0.05497447028756142,
                1.4759564399719238
            ],
            "min" : [
                -1.6073390245437622,
                -0.08375723659992218,
                0.8695990443229675
            ],
            "type" : "VEC3"
        },
        {
            "bufferView" : 17,
            "componentType" : 5126,
            "count" : 2628,
            "type" : "VEC2"
        },
        {
            "bufferView" : 18,
            "componentType" : 5126,
            "count" : 2628,
            "type" : "VEC3"
        },
        {
            "bufferView" : 19,
            "componentType" : 5123,
            "count" : 3156,
            "type" : "SCALAR"
        },
        {
            "bufferView" : 20,
            "componentType" : 5126,
            "count" : 7786,
            "max" : [
                -1.0850650072097778,
                0.05166018381714821,
                1.3932180404663086
            ],
            "min" : [
                -1.522900938987732,
                -0.07048767805099487,
                0.9456539750099182
            ],
            "type" : "VEC3"
        },
        {
            "bufferView" : 21,
            "componentType" : 5126,
            "count" : 7786,
            "type" : "VEC2"
        },
        {
            "bufferView" : 22,
            "componentType" : 5126,
            "count" : 7786,
            "type" : "VEC3"
        },
        {
            "bufferView" : 23,
            "componentType" : 5123,
            "count" : 9348,
            "type" : "SCALAR"
        },
        {
            "bufferView" : 24,
            "componentType" : 5126,
            "count" : 1066,
            "max" : [
                -1.5497931241989136,
                0.14627763628959656,
                -0.7708091139793396
            ],
            "min" : [
                -2.099393129348755,
                -0.13376109302043915,
                -1.344395399093628
            ],
            "type" : "VEC3"
        },
        {
            "bufferView" : 25,
            "componentType" : 5126,
            "count" : 1066,
            "type" : "VEC2"
        },
        {
            "bufferView" : 26,
            "componentType" : 5126,
            "count" : 1066,
            "type" : "VEC3"
        },
        {
            "bufferView" : 27,
            "componentType" : 5123,
            "count" : 3180,
            "type" : "SCALAR"
        },
        {
            "bufferView" : 28,
            "componentType" : 5126,
            "count" : 2988,
            "max" : [
                -0.069342702627182,
                0.22826239466667175,
                -0.7982432246208191
            ],
            "min" : [
                -0.681343674659729,
                -0.015088386833667755,
                -1.2731703519821167
            ],
            "type" : "VEC3"
        },
        {
            "bufferView" : 29,
            "componentType" : 5126,
            "count" : 2988,
            "type" : "VEC2"
        },
        {
            "bufferView" : 30,
            "componentType" : 5126,
            "count" : 2988,
            "type" : "VEC3"
        },
        {
            "bufferView" : 31,
            "componentType" : 5123,
            "count" : 3588,
            "type" : "SCALAR"
        }
    ],
    "bufferViews" : [
        {
            "buffer" : 0,
            "byteLength" : 66636,
            "byteOffset" : 0,
            "target" : 34962
        },
        {
            "buffer" : 0,
            "byteLength" : 44424,
            "byteOffset" : 66636,
            "target" : 34962
        },
        {
            "buffer" : 0,
            "byteLength" : 66636,
            "byteOffset" : 111060,
            "target" : 34962
        },
        {
            "buffer" : 0,
            "byteLength" : 41316,
            "byteOffset" : 177696,
            "target" : 34963
        },
        {
            "buffer" : 0,
            "byteLength" : 69444,
            "byteOffset" : 219012,
            "target" : 34962
        },
        {
            "buffer" : 0,
            "byteLength" : 46296,
            "byteOffset" : 288456,
            "target" : 34962
        },
        {
            "buffer" : 0,
            "byteLength" : 69444,
            "byteOffset" : 334752,
            "target" : 34962
        },
        {
            "buffer" : 0,
            "byteLength" : 37068,
            "byteOffset" : 404196,
            "target" : 34963
        },
        {
            "buffer" : 0,
            "byteLength" : 272664,
            "byteOffset" : 441264,
            "target" : 34962
        },
        {
            "buffer" : 0,
            "byteLength" : 181776,
            "byteOffset" : 713928,
            "target" : 34962
        },
        {
            "buffer" : 0,
            "byteLength" : 272664,
            "byteOffset" : 895704,
            "target" : 34962
        },
        {
            "buffer" : 0,
            "byteLength" : 69528,
            "byteOffset" : 1168368,
            "target" : 34963
        },
        {
            "buffer" : 0,
            "byteLength" : 6576,
            "byteOffset" : 1237896,
            "target" : 34962
        },
        {
            "buffer" : 0,
            "byteLength" : 4384,
            "byteOffset" : 1244472,
            "target" : 34962
        },
        {
            "buffer" : 0,
            "byteLength" : 6576,
            "byteOffset" : 1248856,
            "target" : 34962
        },
        {
            "buffer" : 0,
            "byteLength" : 2988,
            "byteOffset" : 1255432,
            "target" : 34963
        },
        {
            "buffer" : 0,
            "byteLength" : 31536,
            "byteOffset" : 1258420,
            "target" : 34962
        },
        {
            "buffer" : 0,
            "byteLength" : 21024,
            "byteOffset" : 1289956,
            "target" : 34962
        },
        {
            "buffer" : 0,
            "byteLength" : 31536,
            "byteOffset" : 1310980,
            "target" : 34962
        },
        {
            "buffer" : 0,
            "byteLength" : 6312,
            "byteOffset" : 1342516,
            "target" : 34963
        },
        {
            "buffer" : 0,
            "byteLength" : 93432,
            "byteOffset" : 1348828,
            "target" : 34962
        },
        {
            "buffer" : 0,
            "byteLength" : 62288,
            "byteOffset" : 1442260,
            "target" : 34962
        },
        {
            "buffer" : 0,
            "byteLength" : 93432,
            "byteOffset" : 1504548,
            "target" : 34962
        },
        {
            "buffer" : 0,
            "byteLength" : 18696,
            "byteOffset" : 1597980,
            "target" : 34963
        },
        {
            "buffer" : 0,
            "byteLength" : 12792,
            "byteOffset" : 1616676,
            "target" : 34962
        },
        {
            "buffer" : 0,
            "byteLength" : 8528,
            "byteOffset" : 1629468,
            "target" : 34962
        },
        {
            "buffer" : 0,
            "byteLength" : 12792,
            "byteOffset" : 1637996,
            "target" : 34962
        },
        {
            "buffer" : 0,
            "byteLength" : 6360,
            "byteOffset" : 1650788,
            "target" : 34963
        },
        {
            "buffer" : 0,
            "byteLength" : 35856,
            "byteOffset" : 1657148,
            "target" : 34962
        },
        {
            "buffer" : 0,
            "byteLength" : 23904,
            "byteOffset" : 1693004,
            "target" : 34962
        },
        {
            "buffer" : 0,
            "byteLength" : 35856,
            "byteOffset" : 1716908,
            "target" : 34962
        },
        {
            "buffer" : 0,
            "byteLength" : 7176,
            "byteOffset" : 1752764,
            "target" : 34963
        }
    ],
    "samplers" : [
        {
            "magFilter" : 9729,
            "minFilter" : 9987
        }
    ],
    "buffers" : [
        {
            "byteLength" : 1759940,
            "uri" : "scene.bin"
        }
    ]
}
